<svg width="293" height="391" viewBox="0 0 293 391" fill="none" xmlns="http://www.w3.org/2000/svg">
<path d="M0 0H39H146.5V39H39V313H0V0Z" fill="url(#paint0_linear_6_12)"/>
<rect x="64.6892" y="191" width="39" height="132" transform="rotate(-90 64.6892 191)" fill="url(#paint1_linear_6_12)"/>
<path d="M157.689 15H196.689V191L157.689 152V15Z" fill="url(#paint2_linear_6_12)"/>
<rect x="31" y="171.163" width="39" height="180.635" transform="rotate(-30 31 171.163)" fill="url(#paint3_linear_6_12)"/>
<path d="M1.05682 340V331.273H2.0625V334.494H2.14773C2.22159 334.381 2.32386 334.236 2.45455 334.06C2.58807 333.881 2.77841 333.722 3.02557 333.582C3.27557 333.44 3.61364 333.369 4.03977 333.369C4.59091 333.369 5.0767 333.507 5.49716 333.783C5.91761 334.058 6.24574 334.449 6.48153 334.955C6.71733 335.46 6.83523 336.057 6.83523 336.744C6.83523 337.438 6.71733 338.038 6.48153 338.547C6.24574 339.053 5.91903 339.445 5.50142 339.723C5.08381 339.999 4.60227 340.136 4.05682 340.136C3.63636 340.136 3.29972 340.067 3.04688 339.928C2.79403 339.786 2.59943 339.625 2.46307 339.446C2.3267 339.264 2.22159 339.114 2.14773 338.994H2.02841V340H1.05682ZM2.04545 336.727C2.04545 337.222 2.1179 337.658 2.26278 338.036C2.40767 338.411 2.61932 338.705 2.89773 338.918C3.17614 339.128 3.51705 339.233 3.92045 339.233C4.34091 339.233 4.69176 339.122 4.97301 338.901C5.2571 338.676 5.47017 338.375 5.61222 337.997C5.7571 337.616 5.82955 337.193 5.82955 336.727C5.82955 336.267 5.75852 335.852 5.61648 335.483C5.47727 335.111 5.26563 334.817 4.98153 334.601C4.70028 334.382 4.34659 334.273 3.92045 334.273C3.51136 334.273 3.16761 334.376 2.8892 334.584C2.6108 334.788 2.40057 335.075 2.25852 335.445C2.11648 335.811 2.04545 336.239 2.04545 336.727ZM8.78693 342.455C8.61648 342.455 8.46449 342.44 8.33097 342.412C8.19744 342.386 8.10511 342.361 8.05398 342.335L8.30966 341.449C8.55398 341.511 8.76989 341.534 8.95739 341.517C9.14489 341.5 9.31108 341.416 9.45597 341.266C9.60369 341.118 9.73864 340.878 9.8608 340.545L10.0483 340.034L7.62784 333.455H8.71875L10.5256 338.67H10.5938L12.4006 333.455H13.4915L10.7131 340.955C10.5881 341.293 10.4332 341.572 10.2486 341.794C10.0639 342.018 9.84943 342.185 9.60511 342.293C9.36364 342.401 9.09091 342.455 8.78693 342.455Z" fill="white"/>
<path d="M1.13778 362V348.909H6.30256C7.29119 348.909 8.13494 349.086 8.83381 349.44C9.53693 349.789 10.0717 350.286 10.4382 350.929C10.8089 351.568 10.9943 352.32 10.9943 353.185C10.9943 354.055 10.8068 354.803 10.4318 355.429C10.0568 356.051 9.51349 356.528 8.80185 356.861C8.09446 357.193 7.23793 357.359 6.23224 357.359H2.77415V355.135H5.7848C6.31321 355.135 6.75213 355.062 7.10156 354.918C7.45099 354.773 7.71094 354.555 7.88139 354.266C8.05611 353.976 8.14347 353.616 8.14347 353.185C8.14347 352.751 8.05611 352.384 7.88139 352.086C7.71094 351.788 7.44886 351.562 7.09517 351.408C6.74574 351.251 6.30469 351.172 5.77202 351.172H3.90554V362H1.13778ZM8.20739 356.043L11.4609 362H8.40554L5.2223 356.043H8.20739ZM17.2154 362.192C16.2054 362.192 15.3361 361.987 14.6074 361.578C13.883 361.165 13.3248 360.581 12.9327 359.827C12.5407 359.068 12.3446 358.171 12.3446 357.136C12.3446 356.126 12.5407 355.239 12.9327 354.477C13.3248 353.714 13.8766 353.119 14.5882 352.693C15.3042 352.267 16.1436 352.054 17.1067 352.054C17.7544 352.054 18.3574 352.158 18.9157 352.367C19.4782 352.572 19.9682 352.881 20.3858 353.294C20.8077 353.707 21.1358 354.227 21.3702 354.854C21.6046 355.476 21.7218 356.205 21.7218 357.04V357.788H13.4313V356.1H19.1586C19.1586 355.708 19.0733 355.361 18.9029 355.058C18.7324 354.756 18.4959 354.519 18.1934 354.349C17.8951 354.174 17.5478 354.087 17.1515 354.087C16.7381 354.087 16.3716 354.183 16.052 354.374C15.7367 354.562 15.4895 354.815 15.3105 355.135C15.1316 355.45 15.04 355.802 15.0357 356.19V357.794C15.0357 358.28 15.1252 358.7 15.3042 359.053C15.4874 359.407 15.7452 359.68 16.0776 359.871C16.41 360.063 16.8042 360.159 17.2601 360.159C17.5627 360.159 17.8397 360.116 18.0911 360.031C18.3425 359.946 18.5577 359.818 18.7367 359.648C18.9157 359.477 19.052 359.268 19.1458 359.021L21.6642 359.188C21.5364 359.793 21.2743 360.321 20.878 360.773C20.486 361.22 19.9789 361.57 19.3567 361.821C18.7388 362.068 18.025 362.192 17.2154 362.192ZM31.6678 354.982L29.1749 355.135C29.1323 354.922 29.0407 354.73 28.9 354.56C28.7594 354.385 28.574 354.246 28.3439 354.144C28.1181 354.038 27.8475 353.984 27.5321 353.984C27.1103 353.984 26.7544 354.074 26.4647 354.253C26.1749 354.428 26.03 354.662 26.03 354.956C26.03 355.19 26.1238 355.388 26.3113 355.55C26.4988 355.712 26.8205 355.842 27.2765 355.94L29.0534 356.298C30.008 356.494 30.7196 356.81 31.1884 357.244C31.6571 357.679 31.8915 358.25 31.8915 358.957C31.8915 359.601 31.7019 360.165 31.3226 360.651C30.9476 361.137 30.432 361.516 29.7757 361.789C29.1238 362.058 28.3716 362.192 27.5194 362.192C26.2196 362.192 25.1841 361.921 24.4128 361.38C23.6458 360.835 23.1962 360.093 23.0641 359.156L25.7424 359.015C25.8233 359.411 26.0194 359.714 26.3304 359.923C26.6415 360.127 27.04 360.229 27.5257 360.229C28.003 360.229 28.3865 360.138 28.6763 359.955C28.9703 359.767 29.1195 359.526 29.1238 359.232C29.1195 358.985 29.0151 358.783 28.8105 358.625C28.606 358.463 28.2907 358.339 27.8645 358.254L26.1642 357.915C25.2054 357.724 24.4917 357.391 24.0229 356.918C23.5584 356.445 23.3262 355.842 23.3262 355.109C23.3262 354.479 23.4966 353.935 23.8375 353.479C24.1827 353.023 24.6664 352.672 25.2885 352.425C25.915 352.178 26.6479 352.054 27.4874 352.054C28.7275 352.054 29.7033 352.316 30.415 352.84C31.1309 353.364 31.5485 354.078 31.6678 354.982ZM38.0806 362.192C37.0707 362.192 36.2013 361.987 35.4727 361.578C34.7482 361.165 34.19 360.581 33.7979 359.827C33.4059 359.068 33.2099 358.171 33.2099 357.136C33.2099 356.126 33.4059 355.239 33.7979 354.477C34.19 353.714 34.7418 353.119 35.4535 352.693C36.1694 352.267 37.0089 352.054 37.9719 352.054C38.6197 352.054 39.2227 352.158 39.7809 352.367C40.3434 352.572 40.8335 352.881 41.2511 353.294C41.6729 353.707 42.0011 354.227 42.2354 354.854C42.4698 355.476 42.587 356.205 42.587 357.04V357.788H34.2965V356.1H40.0238C40.0238 355.708 39.9386 355.361 39.7681 355.058C39.5977 354.756 39.3612 354.519 39.0586 354.349C38.7603 354.174 38.413 354.087 38.0167 354.087C37.6033 354.087 37.2369 354.183 36.9173 354.374C36.6019 354.562 36.3548 354.815 36.1758 355.135C35.9968 355.45 35.9052 355.802 35.9009 356.19V357.794C35.9009 358.28 35.9904 358.7 36.1694 359.053C36.3526 359.407 36.6104 359.68 36.9428 359.871C37.2752 360.063 37.6694 360.159 38.1254 360.159C38.4279 360.159 38.7049 360.116 38.9563 360.031C39.2077 359.946 39.4229 359.818 39.6019 359.648C39.7809 359.477 39.9173 359.268 40.011 359.021L42.5295 359.188C42.4016 359.793 42.1396 360.321 41.7433 360.773C41.3512 361.22 40.8441 361.57 40.2219 361.821C39.604 362.068 38.8903 362.192 38.0806 362.192ZM47.1637 362.185C46.5373 362.185 45.979 362.077 45.489 361.859C44.9989 361.638 44.6112 361.312 44.3256 360.881C44.0444 360.447 43.9038 359.906 43.9038 359.258C43.9038 358.712 44.0039 358.254 44.2042 357.884C44.4045 357.513 44.6772 357.214 45.0224 356.989C45.3675 356.763 45.7596 356.592 46.1985 356.477C46.6417 356.362 47.1062 356.281 47.592 356.234C48.163 356.175 48.6232 356.119 48.9727 356.068C49.3221 356.013 49.5756 355.932 49.7333 355.825C49.891 355.719 49.9698 355.561 49.9698 355.352V355.314C49.9698 354.909 49.842 354.596 49.5863 354.374C49.3349 354.153 48.9769 354.042 48.5124 354.042C48.0224 354.042 47.6325 354.151 47.3427 354.368C47.0529 354.581 46.8612 354.849 46.7674 355.173L44.2489 354.969C44.3768 354.372 44.6282 353.857 45.0032 353.422C45.3782 352.983 45.8619 352.646 46.4542 352.412C47.0508 352.173 47.7411 352.054 48.5252 352.054C49.0707 352.054 49.5927 352.118 50.0913 352.246C50.5941 352.374 51.0394 352.572 51.4272 352.84C51.8192 353.109 52.1282 353.454 52.354 353.876C52.5799 354.293 52.6928 354.794 52.6928 355.378V362H50.1104V360.638H50.0337C49.8761 360.945 49.6651 361.216 49.4009 361.45C49.1367 361.68 48.8192 361.862 48.4485 361.994C48.0778 362.121 47.6495 362.185 47.1637 362.185ZM47.9435 360.306C48.3441 360.306 48.6978 360.227 49.0046 360.07C49.3114 359.908 49.5522 359.69 49.7269 359.418C49.9016 359.145 49.989 358.836 49.989 358.491V357.449C49.9038 357.504 49.7866 357.555 49.6374 357.602C49.4925 357.645 49.3285 357.685 49.1452 357.724C48.962 357.758 48.7788 357.79 48.5955 357.82C48.4123 357.845 48.2461 357.869 48.0969 357.89C47.7773 357.937 47.4982 358.011 47.2596 358.114C47.021 358.216 46.8356 358.354 46.7035 358.529C46.5714 358.7 46.5053 358.913 46.5053 359.168C46.5053 359.539 46.6396 359.822 46.908 360.018C47.1808 360.21 47.5259 360.306 47.9435 360.306ZM54.8054 362V352.182H57.4453V353.895H57.5476C57.7266 353.286 58.027 352.825 58.4489 352.514C58.8707 352.199 59.3565 352.041 59.9062 352.041C60.0426 352.041 60.1896 352.05 60.3473 352.067C60.505 352.084 60.6435 352.107 60.7628 352.137V354.553C60.6349 354.515 60.4581 354.481 60.2322 354.451C60.0064 354.421 59.7997 354.406 59.6122 354.406C59.2116 354.406 58.8537 354.494 58.5384 354.668C58.2273 354.839 57.9801 355.077 57.7969 355.384C57.6179 355.691 57.5284 356.045 57.5284 356.445V362H54.8054ZM66.1497 362.192C65.144 362.192 64.2789 361.979 63.5545 361.553C62.8343 361.122 62.2804 360.526 61.8926 359.763C61.5091 359 61.3173 358.122 61.3173 357.129C61.3173 356.124 61.5112 355.241 61.899 354.483C62.291 353.72 62.8471 353.126 63.5673 352.7C64.2875 352.269 65.144 352.054 66.1369 352.054C66.9934 352.054 67.7434 352.21 68.3869 352.521C69.0304 352.832 69.5396 353.268 69.9146 353.831C70.2896 354.393 70.4963 355.054 70.5346 355.812H67.965C67.8926 355.322 67.7008 354.928 67.3897 354.63C67.0829 354.327 66.6802 354.176 66.1816 354.176C65.7598 354.176 65.3912 354.291 65.0758 354.521C64.7647 354.747 64.5218 355.077 64.3471 355.512C64.1724 355.947 64.085 356.473 64.085 357.091C64.085 357.717 64.1703 358.25 64.3407 358.689C64.5154 359.128 64.7605 359.462 65.0758 359.692C65.3912 359.923 65.7598 360.038 66.1816 360.038C66.4927 360.038 66.7718 359.974 67.019 359.846C67.2704 359.718 67.4771 359.533 67.639 359.29C67.8052 359.043 67.9139 358.746 67.965 358.401H70.5346C70.492 359.151 70.2875 359.812 69.921 360.383C69.5588 360.95 69.0581 361.393 68.4189 361.712C67.7797 362.032 67.0233 362.192 66.1497 362.192ZM75.0011 356.324V362H72.2781V348.909H74.9244V353.914H75.0394C75.261 353.335 75.619 352.881 76.1133 352.553C76.6076 352.22 77.2276 352.054 77.9734 352.054C78.6552 352.054 79.2496 352.203 79.7567 352.501C80.2681 352.795 80.6644 353.219 80.9457 353.773C81.2312 354.323 81.3718 354.982 81.3675 355.749V362H78.6445V356.234C78.6488 355.629 78.4954 355.158 78.1843 354.822C77.8775 354.485 77.4471 354.317 76.8931 354.317C76.5224 354.317 76.1942 354.396 75.9087 354.553C75.6275 354.711 75.4059 354.941 75.244 355.244C75.0863 355.542 75.0053 355.902 75.0011 356.324ZM90.4762 362.185C89.8498 362.185 89.2915 362.077 88.8015 361.859C88.3114 361.638 87.9237 361.312 87.6381 360.881C87.3569 360.447 87.2163 359.906 87.2163 359.258C87.2163 358.712 87.3164 358.254 87.5167 357.884C87.717 357.513 87.9897 357.214 88.3349 356.989C88.68 356.763 89.0721 356.592 89.511 356.477C89.9542 356.362 90.4187 356.281 90.9045 356.234C91.4755 356.175 91.9357 356.119 92.2852 356.068C92.6346 356.013 92.8881 355.932 93.0458 355.825C93.2035 355.719 93.2823 355.561 93.2823 355.352V355.314C93.2823 354.909 93.1545 354.596 92.8988 354.374C92.6474 354.153 92.2894 354.042 91.8249 354.042C91.3349 354.042 90.945 354.151 90.6552 354.368C90.3654 354.581 90.1737 354.849 90.0799 355.173L87.5614 354.969C87.6893 354.372 87.9407 353.857 88.3157 353.422C88.6907 352.983 89.1744 352.646 89.7667 352.412C90.3633 352.173 91.0536 352.054 91.8377 352.054C92.3832 352.054 92.9052 352.118 93.4038 352.246C93.9066 352.374 94.3519 352.572 94.7397 352.84C95.1317 353.109 95.4407 353.454 95.6665 353.876C95.8924 354.293 96.0053 354.794 96.0053 355.378V362H93.4229V360.638H93.3462C93.1886 360.945 92.9776 361.216 92.7134 361.45C92.4492 361.68 92.1317 361.862 91.761 361.994C91.3903 362.121 90.962 362.185 90.4762 362.185ZM91.256 360.306C91.6566 360.306 92.0103 360.227 92.3171 360.07C92.6239 359.908 92.8647 359.69 93.0394 359.418C93.2141 359.145 93.3015 358.836 93.3015 358.491V357.449C93.2163 357.504 93.0991 357.555 92.9499 357.602C92.805 357.645 92.641 357.685 92.4577 357.724C92.2745 357.758 92.0913 357.79 91.908 357.82C91.7248 357.845 91.5586 357.869 91.4094 357.89C91.0898 357.937 90.8107 358.011 90.5721 358.114C90.3335 358.216 90.1481 358.354 90.016 358.529C89.8839 358.7 89.8178 358.913 89.8178 359.168C89.8178 359.539 89.9521 359.822 90.2205 360.018C90.4933 360.21 90.8384 360.306 91.256 360.306ZM100.841 356.324V362H98.1179V352.182H100.713V353.914H100.828C101.045 353.343 101.41 352.891 101.921 352.559C102.433 352.222 103.053 352.054 103.781 352.054C104.463 352.054 105.058 352.203 105.565 352.501C106.072 352.8 106.466 353.226 106.747 353.78C107.028 354.33 107.169 354.986 107.169 355.749V362H104.446V356.234C104.45 355.634 104.297 355.165 103.986 354.828C103.675 354.487 103.246 354.317 102.701 354.317C102.335 354.317 102.011 354.396 101.729 354.553C101.452 354.711 101.235 354.941 101.077 355.244C100.924 355.542 100.845 355.902 100.841 356.324ZM112.933 362.16C112.187 362.16 111.512 361.968 110.907 361.585C110.306 361.197 109.829 360.628 109.475 359.878C109.126 359.124 108.951 358.199 108.951 357.104C108.951 355.979 109.132 355.043 109.494 354.298C109.856 353.548 110.338 352.987 110.939 352.616C111.544 352.241 112.206 352.054 112.927 352.054C113.476 352.054 113.934 352.148 114.301 352.335C114.672 352.518 114.97 352.749 115.196 353.026C115.426 353.298 115.601 353.567 115.72 353.831H115.803V348.909H118.52V362H115.835V360.428H115.72C115.592 360.7 115.411 360.971 115.177 361.239C114.947 361.504 114.646 361.723 114.275 361.898C113.909 362.072 113.461 362.16 112.933 362.16ZM113.796 359.993C114.235 359.993 114.606 359.874 114.908 359.635C115.215 359.392 115.449 359.053 115.611 358.619C115.778 358.184 115.861 357.675 115.861 357.091C115.861 356.507 115.78 356 115.618 355.57C115.456 355.139 115.221 354.807 114.915 354.572C114.608 354.338 114.235 354.221 113.796 354.221C113.349 354.221 112.971 354.342 112.665 354.585C112.358 354.828 112.126 355.165 111.968 355.595C111.81 356.026 111.731 356.524 111.731 357.091C111.731 357.662 111.81 358.167 111.968 358.606C112.13 359.04 112.362 359.381 112.665 359.629C112.971 359.871 113.349 359.993 113.796 359.993ZM136.526 353.492H133.726C133.675 353.13 133.571 352.808 133.413 352.527C133.256 352.241 133.053 351.999 132.806 351.798C132.559 351.598 132.273 351.445 131.949 351.338C131.63 351.232 131.282 351.178 130.907 351.178C130.23 351.178 129.64 351.347 129.137 351.683C128.634 352.016 128.244 352.501 127.967 353.141C127.69 353.776 127.552 354.547 127.552 355.455C127.552 356.388 127.69 357.172 127.967 357.807C128.248 358.442 128.64 358.921 129.143 359.245C129.646 359.569 130.228 359.731 130.888 359.731C131.259 359.731 131.602 359.682 131.917 359.584C132.237 359.486 132.52 359.343 132.768 359.156C133.015 358.964 133.219 358.732 133.381 358.459C133.547 358.186 133.662 357.875 133.726 357.526L136.526 357.538C136.454 358.139 136.273 358.719 135.983 359.277C135.697 359.831 135.312 360.327 134.826 360.766C134.344 361.201 133.769 361.546 133.1 361.802C132.435 362.053 131.683 362.179 130.844 362.179C129.676 362.179 128.632 361.915 127.711 361.386C126.795 360.858 126.071 360.093 125.538 359.092C125.01 358.09 124.746 356.878 124.746 355.455C124.746 354.027 125.014 352.812 125.551 351.811C126.088 350.81 126.817 350.047 127.737 349.523C128.657 348.994 129.693 348.73 130.844 348.73C131.602 348.73 132.305 348.837 132.953 349.05C133.605 349.263 134.182 349.574 134.685 349.983C135.188 350.388 135.597 350.884 135.912 351.472C136.232 352.06 136.437 352.734 136.526 353.492ZM142.896 362.192C141.903 362.192 141.044 361.981 140.32 361.559C139.6 361.133 139.044 360.54 138.651 359.782C138.259 359.019 138.063 358.135 138.063 357.129C138.063 356.115 138.259 355.229 138.651 354.47C139.044 353.707 139.6 353.115 140.32 352.693C141.044 352.267 141.903 352.054 142.896 352.054C143.889 352.054 144.745 352.267 145.465 352.693C146.19 353.115 146.748 353.707 147.14 354.47C147.532 355.229 147.728 356.115 147.728 357.129C147.728 358.135 147.532 359.019 147.14 359.782C146.748 360.54 146.19 361.133 145.465 361.559C144.745 361.981 143.889 362.192 142.896 362.192ZM142.909 360.082C143.36 360.082 143.737 359.955 144.04 359.699C144.343 359.439 144.57 359.085 144.724 358.638C144.882 358.19 144.96 357.681 144.96 357.11C144.96 356.539 144.882 356.03 144.724 355.582C144.57 355.135 144.343 354.781 144.04 354.521C143.737 354.261 143.36 354.131 142.909 354.131C142.453 354.131 142.069 354.261 141.758 354.521C141.451 354.781 141.219 355.135 141.061 355.582C140.908 356.03 140.831 356.539 140.831 357.11C140.831 357.681 140.908 358.19 141.061 358.638C141.219 359.085 141.451 359.439 141.758 359.699C142.069 359.955 142.453 360.082 142.909 360.082ZM149.499 362V352.182H152.094V353.914H152.209C152.414 353.339 152.754 352.885 153.232 352.553C153.709 352.22 154.28 352.054 154.945 352.054C155.618 352.054 156.191 352.222 156.664 352.559C157.137 352.891 157.453 353.343 157.61 353.914H157.713C157.913 353.352 158.275 352.902 158.799 352.565C159.328 352.224 159.952 352.054 160.672 352.054C161.588 352.054 162.332 352.346 162.903 352.93C163.478 353.509 163.766 354.332 163.766 355.397V362H161.049V355.934C161.049 355.388 160.904 354.979 160.615 354.707C160.325 354.434 159.963 354.298 159.528 354.298C159.034 354.298 158.648 354.455 158.371 354.771C158.094 355.082 157.955 355.493 157.955 356.004V362H155.316V355.876C155.316 355.395 155.177 355.011 154.9 354.726C154.627 354.44 154.267 354.298 153.82 354.298C153.517 354.298 153.244 354.374 153.002 354.528C152.763 354.677 152.573 354.888 152.433 355.161C152.292 355.429 152.222 355.744 152.222 356.107V362H149.499ZM165.917 365.682V352.182H168.601V353.831H168.723C168.842 353.567 169.015 353.298 169.241 353.026C169.471 352.749 169.769 352.518 170.135 352.335C170.506 352.148 170.966 352.054 171.516 352.054C172.232 352.054 172.893 352.241 173.498 352.616C174.103 352.987 174.586 353.548 174.949 354.298C175.311 355.043 175.492 355.979 175.492 357.104C175.492 358.199 175.315 359.124 174.961 359.878C174.612 360.628 174.135 361.197 173.53 361.585C172.929 361.968 172.256 362.16 171.51 362.16C170.981 362.16 170.532 362.072 170.161 361.898C169.795 361.723 169.494 361.504 169.26 361.239C169.025 360.971 168.846 360.7 168.723 360.428H168.64V365.682H165.917ZM168.582 357.091C168.582 357.675 168.663 358.184 168.825 358.619C168.987 359.053 169.221 359.392 169.528 359.635C169.835 359.874 170.208 359.993 170.647 359.993C171.09 359.993 171.465 359.871 171.772 359.629C172.079 359.381 172.311 359.04 172.469 358.606C172.631 358.167 172.711 357.662 172.711 357.091C172.711 356.524 172.633 356.026 172.475 355.595C172.317 355.165 172.085 354.828 171.778 354.585C171.471 354.342 171.094 354.221 170.647 354.221C170.204 354.221 169.829 354.338 169.522 354.572C169.219 354.807 168.987 355.139 168.825 355.57C168.663 356 168.582 356.507 168.582 357.091ZM181.782 362.192C180.772 362.192 179.903 361.987 179.174 361.578C178.449 361.165 177.891 360.581 177.499 359.827C177.107 359.068 176.911 358.171 176.911 357.136C176.911 356.126 177.107 355.239 177.499 354.477C177.891 353.714 178.443 353.119 179.155 352.693C179.871 352.267 180.71 352.054 181.673 352.054C182.321 352.054 182.924 352.158 183.482 352.367C184.045 352.572 184.535 352.881 184.952 353.294C185.374 353.707 185.702 354.227 185.937 354.854C186.171 355.476 186.288 356.205 186.288 357.04V357.788H177.998V356.1H183.725C183.725 355.708 183.64 355.361 183.469 355.058C183.299 354.756 183.062 354.519 182.76 354.349C182.461 354.174 182.114 354.087 181.718 354.087C181.305 354.087 180.938 354.183 180.618 354.374C180.303 354.562 180.056 354.815 179.877 355.135C179.698 355.45 179.606 355.802 179.602 356.19V357.794C179.602 358.28 179.692 358.7 179.871 359.053C180.054 359.407 180.312 359.68 180.644 359.871C180.976 360.063 181.371 360.159 181.827 360.159C182.129 360.159 182.406 360.116 182.657 360.031C182.909 359.946 183.124 359.818 183.303 359.648C183.482 359.477 183.618 359.268 183.712 359.021L186.231 359.188C186.103 359.793 185.841 360.321 185.444 360.773C185.052 361.22 184.545 361.57 183.923 361.821C183.305 362.068 182.591 362.192 181.782 362.192ZM193.287 352.182V354.227H187.375V352.182H193.287ZM188.717 349.83H191.44V358.983C191.44 359.234 191.479 359.43 191.555 359.571C191.632 359.707 191.738 359.803 191.875 359.859C192.015 359.914 192.177 359.942 192.361 359.942C192.488 359.942 192.616 359.931 192.744 359.91C192.872 359.884 192.97 359.865 193.038 359.852L193.466 361.879C193.33 361.921 193.138 361.97 192.891 362.026C192.644 362.085 192.344 362.121 191.99 362.134C191.334 362.16 190.758 362.072 190.264 361.872C189.774 361.672 189.393 361.361 189.12 360.939C188.847 360.517 188.713 359.984 188.717 359.341V349.83ZM195.061 362V352.182H197.784V362H195.061ZM196.429 350.916C196.024 350.916 195.677 350.782 195.387 350.513C195.102 350.241 194.959 349.915 194.959 349.536C194.959 349.161 195.102 348.839 195.387 348.57C195.677 348.298 196.024 348.161 196.429 348.161C196.834 348.161 197.179 348.298 197.465 348.57C197.754 348.839 197.899 349.161 197.899 349.536C197.899 349.915 197.754 350.241 197.465 350.513C197.179 350.782 196.834 350.916 196.429 350.916ZM205.188 352.182V354.227H199.275V352.182H205.188ZM200.618 349.83H203.341V358.983C203.341 359.234 203.379 359.43 203.456 359.571C203.532 359.707 203.639 359.803 203.775 359.859C203.916 359.914 204.078 359.942 204.261 359.942C204.389 359.942 204.517 359.931 204.645 359.91C204.772 359.884 204.87 359.865 204.939 359.852L205.367 361.879C205.23 361.921 205.039 361.97 204.792 362.026C204.544 362.085 204.244 362.121 203.89 362.134C203.234 362.16 202.659 362.072 202.164 361.872C201.674 361.672 201.293 361.361 201.02 360.939C200.748 360.517 200.613 359.984 200.618 359.341V349.83ZM206.962 362V352.182H209.685V362H206.962ZM208.33 350.916C207.925 350.916 207.577 350.782 207.288 350.513C207.002 350.241 206.859 349.915 206.859 349.536C206.859 349.161 207.002 348.839 207.288 348.57C207.577 348.298 207.925 348.161 208.33 348.161C208.734 348.161 209.08 348.298 209.365 348.57C209.655 348.839 209.8 349.161 209.8 349.536C209.8 349.915 209.655 350.241 209.365 350.513C209.08 350.782 208.734 350.916 208.33 350.916ZM216.302 362.192C215.309 362.192 214.45 361.981 213.726 361.559C213.006 361.133 212.45 360.54 212.058 359.782C211.666 359.019 211.47 358.135 211.47 357.129C211.47 356.115 211.666 355.229 212.058 354.47C212.45 353.707 213.006 353.115 213.726 352.693C214.45 352.267 215.309 352.054 216.302 352.054C217.295 352.054 218.151 352.267 218.872 352.693C219.596 353.115 220.154 353.707 220.546 354.47C220.938 355.229 221.134 356.115 221.134 357.129C221.134 358.135 220.938 359.019 220.546 359.782C220.154 360.54 219.596 361.133 218.872 361.559C218.151 361.981 217.295 362.192 216.302 362.192ZM216.315 360.082C216.767 360.082 217.144 359.955 217.446 359.699C217.749 359.439 217.977 359.085 218.13 358.638C218.288 358.19 218.367 357.681 218.367 357.11C218.367 356.539 218.288 356.03 218.13 355.582C217.977 355.135 217.749 354.781 217.446 354.521C217.144 354.261 216.767 354.131 216.315 354.131C215.859 354.131 215.475 354.261 215.164 354.521C214.857 354.781 214.625 355.135 214.468 355.582C214.314 356.03 214.237 356.539 214.237 357.11C214.237 357.681 214.314 358.19 214.468 358.638C214.625 359.085 214.857 359.439 215.164 359.699C215.475 359.955 215.859 360.082 216.315 360.082ZM225.628 356.324V362H222.905V352.182H225.5V353.914H225.615C225.833 353.343 226.197 352.891 226.708 352.559C227.22 352.222 227.84 352.054 228.568 352.054C229.25 352.054 229.845 352.203 230.352 352.501C230.859 352.8 231.253 353.226 231.534 353.78C231.816 354.33 231.956 354.986 231.956 355.749V362H229.233V356.234C229.237 355.634 229.084 355.165 228.773 354.828C228.462 354.487 228.034 354.317 227.488 354.317C227.122 354.317 226.798 354.396 226.517 354.553C226.24 354.711 226.022 354.941 225.865 355.244C225.711 355.542 225.632 355.902 225.628 356.324ZM9.15483 375.638C9.09801 375.065 8.85417 374.62 8.4233 374.303C7.99242 373.985 7.40767 373.827 6.66903 373.827C6.16714 373.827 5.74337 373.898 5.39773 374.04C5.05208 374.177 4.78693 374.369 4.60227 374.615C4.42235 374.861 4.33239 375.141 4.33239 375.453C4.32292 375.714 4.37737 375.941 4.49574 376.135C4.61884 376.329 4.78693 376.497 5 376.639C5.21307 376.777 5.45928 376.897 5.73864 377.001C6.01799 377.101 6.31629 377.186 6.63352 377.257L7.94034 377.57C8.57481 377.712 9.1572 377.901 9.6875 378.138C10.2178 378.375 10.6771 378.666 11.0653 379.011C11.4536 379.357 11.7543 379.764 11.9673 380.233C12.1851 380.702 12.2964 381.239 12.3011 381.845C12.2964 382.735 12.0691 383.507 11.6193 384.161C11.1742 384.809 10.5303 385.313 9.6875 385.673C8.84943 386.028 7.83854 386.206 6.65483 386.206C5.48059 386.206 4.45786 386.026 3.58665 385.666C2.72017 385.306 2.04309 384.774 1.5554 384.068C1.07244 383.358 0.819129 382.48 0.795455 381.433H3.77131C3.80445 381.921 3.94413 382.328 4.19034 382.655C4.44129 382.977 4.77509 383.221 5.19176 383.386C5.61316 383.547 6.08902 383.628 6.61932 383.628C7.14015 383.628 7.59233 383.552 7.97585 383.401C8.36411 383.249 8.66477 383.038 8.87784 382.768C9.09091 382.499 9.19744 382.188 9.19744 381.838C9.19744 381.511 9.10038 381.237 8.90625 381.014C8.71686 380.792 8.4375 380.602 8.06818 380.446C7.7036 380.29 7.25616 380.148 6.72585 380.02L5.14205 379.622C3.91572 379.324 2.94744 378.857 2.23722 378.223C1.52699 377.589 1.17424 376.734 1.17898 375.659C1.17424 374.778 1.40862 374.009 1.8821 373.351C2.36032 372.693 3.0161 372.179 3.84943 371.81C4.68277 371.44 5.62973 371.256 6.69034 371.256C7.76989 371.256 8.71212 371.44 9.51705 371.81C10.3267 372.179 10.9564 372.693 11.4062 373.351C11.8561 374.009 12.0881 374.771 12.1023 375.638H9.15483ZM14.3697 386V371.455H24.1708V373.99H17.445V377.456H23.6665V379.991H17.445V383.464H24.1992V386H14.3697ZM36.2607 376.156C36.1612 375.811 36.0215 375.505 35.8416 375.24C35.6617 374.97 35.4415 374.743 35.1811 374.558C34.9254 374.369 34.6319 374.224 34.3004 374.125C33.9737 374.026 33.6115 373.976 33.2138 373.976C32.4704 373.976 31.817 374.161 31.2536 374.53C30.6948 374.899 30.2592 375.437 29.9467 376.142C29.6342 376.843 29.478 377.7 29.478 378.713C29.478 379.726 29.6319 380.588 29.9396 381.298C30.2474 382.009 30.683 382.551 31.2464 382.925C31.8099 383.294 32.4751 383.479 33.2422 383.479C33.9382 383.479 34.5324 383.356 35.0249 383.109C35.522 382.858 35.9008 382.506 36.1612 382.051C36.4264 381.597 36.5589 381.059 36.5589 380.439L37.1839 380.531H33.4339V378.216H39.5206V380.048C39.5206 381.327 39.2507 382.425 38.7109 383.344C38.1712 384.258 37.4278 384.963 36.4808 385.46C35.5339 385.953 34.4496 386.199 33.228 386.199C31.8643 386.199 30.6664 385.898 29.6342 385.297C28.602 384.691 27.7971 383.831 27.2195 382.719C26.6465 381.601 26.3601 380.276 26.3601 378.741C26.3601 377.562 26.5305 376.511 26.8714 375.588C27.2171 374.66 27.7 373.874 28.3203 373.23C28.9406 372.586 29.6626 372.096 30.4865 371.76C31.3104 371.424 32.2029 371.256 33.1641 371.256C33.9879 371.256 34.755 371.376 35.4652 371.618C36.1754 371.855 36.8052 372.191 37.3544 372.626C37.9084 373.062 38.3606 373.58 38.7109 374.182C39.0613 374.778 39.2862 375.437 39.3857 376.156H36.2607ZM49.5348 371.455V386H46.4595V371.455H49.5348ZM51.511 373.99V371.455H63.457V373.99H59.0039V386H55.9641V373.99H51.511ZM65.4244 386V371.455H71.2482C72.3183 371.455 73.2108 371.613 73.9258 371.93C74.6407 372.248 75.1781 372.688 75.538 373.251C75.8978 373.81 76.0778 374.454 76.0778 375.183C76.0778 375.751 75.9641 376.251 75.7369 376.682C75.5096 377.108 75.1971 377.458 74.7994 377.733C74.4064 378.003 73.9566 378.195 73.4499 378.308V378.45C74.0039 378.474 74.5224 378.63 75.0053 378.919C75.493 379.208 75.8884 379.613 76.1914 380.134C76.4944 380.65 76.646 381.265 76.646 381.98C76.646 382.752 76.4542 383.441 76.0707 384.047C75.6919 384.648 75.1308 385.124 74.3874 385.474C73.6441 385.825 72.7279 386 71.6388 386H65.4244ZM68.4996 383.486H71.0067C71.8638 383.486 72.4888 383.322 72.8817 382.996C73.2747 382.664 73.4712 382.224 73.4712 381.675C73.4712 381.272 73.3742 380.917 73.18 380.609C72.9859 380.302 72.7089 380.06 72.3491 379.885C71.994 379.71 71.5702 379.622 71.0778 379.622H68.4996V383.486ZM68.4996 377.541H70.7795C71.2009 377.541 71.5749 377.468 71.9016 377.321C72.2331 377.17 72.4935 376.956 72.6829 376.682C72.877 376.407 72.9741 376.078 72.9741 375.695C72.9741 375.169 72.7871 374.745 72.413 374.423C72.0437 374.101 71.5181 373.94 70.8363 373.94H68.4996V377.541ZM91.1665 375.638C91.1097 375.065 90.8659 374.62 90.435 374.303C90.0041 373.985 89.4194 373.827 88.6808 373.827C88.1789 373.827 87.7551 373.898 87.4094 374.04C87.0638 374.177 86.7987 374.369 86.614 374.615C86.4341 374.861 86.3441 375.141 86.3441 375.453C86.3346 375.714 86.3891 375.941 86.5075 376.135C86.6306 376.329 86.7987 376.497 87.0117 376.639C87.2248 376.777 87.471 376.897 87.7504 377.001C88.0297 377.101 88.328 377.186 88.6452 377.257L89.9521 377.57C90.5865 377.712 91.1689 377.901 91.6992 378.138C92.2295 378.375 92.6888 378.666 93.0771 379.011C93.4653 379.357 93.766 379.764 93.979 380.233C94.1969 380.702 94.3081 381.239 94.3129 381.845C94.3081 382.735 94.0808 383.507 93.631 384.161C93.186 384.809 92.542 385.313 91.6992 385.673C90.8612 386.028 89.8503 386.206 88.6665 386.206C87.4923 386.206 86.4696 386.026 85.5984 385.666C84.7319 385.306 84.0548 384.774 83.5671 384.068C83.0842 383.358 82.8308 382.48 82.8072 381.433H85.783C85.8162 381.921 85.9558 382.328 86.2021 382.655C86.453 382.977 86.7868 383.221 87.2035 383.386C87.6249 383.547 88.1007 383.628 88.631 383.628C89.1519 383.628 89.604 383.552 89.9876 383.401C90.3758 383.249 90.6765 383.038 90.8896 382.768C91.1026 382.499 91.2092 382.188 91.2092 381.838C91.2092 381.511 91.1121 381.237 90.918 381.014C90.7286 380.792 90.4492 380.602 90.0799 380.446C89.7153 380.29 89.2679 380.148 88.7376 380.02L87.1538 379.622C85.9274 379.324 84.9592 378.857 84.2489 378.223C83.5387 377.589 83.186 376.734 83.1907 375.659C83.186 374.778 83.4203 374.009 83.8938 373.351C84.372 372.693 85.0278 372.179 85.8612 371.81C86.6945 371.44 87.6415 371.256 88.7021 371.256C89.7816 371.256 90.7238 371.44 91.5288 371.81C92.3384 372.179 92.9682 372.693 93.418 373.351C93.8678 374.009 94.0998 374.771 94.114 375.638H91.1665ZM109.215 376.547H106.104C106.048 376.144 105.932 375.787 105.756 375.474C105.581 375.157 105.356 374.887 105.082 374.665C104.807 374.442 104.49 374.272 104.13 374.153C103.775 374.035 103.389 373.976 102.972 373.976C102.219 373.976 101.564 374.163 101.005 374.537C100.446 374.906 100.013 375.446 99.7053 376.156C99.3975 376.862 99.2436 377.719 99.2436 378.727C99.2436 379.764 99.3975 380.635 99.7053 381.341C100.018 382.046 100.453 382.579 101.012 382.939C101.571 383.299 102.217 383.479 102.951 383.479C103.363 383.479 103.744 383.424 104.094 383.315C104.45 383.206 104.764 383.048 105.039 382.839C105.314 382.626 105.541 382.368 105.721 382.065C105.906 381.762 106.033 381.417 106.104 381.028L109.215 381.043C109.135 381.71 108.933 382.354 108.612 382.974C108.294 383.59 107.866 384.142 107.326 384.629C106.791 385.112 106.152 385.496 105.408 385.78C104.67 386.059 103.834 386.199 102.901 386.199C101.604 386.199 100.444 385.905 99.4212 385.318C98.4032 384.731 97.5982 383.881 97.0064 382.768C96.4193 381.656 96.1257 380.309 96.1257 378.727C96.1257 377.141 96.424 375.792 97.0206 374.679C97.6172 373.566 98.4268 372.719 99.4496 372.136C100.472 371.549 101.623 371.256 102.901 371.256C103.744 371.256 104.525 371.374 105.245 371.611C105.969 371.848 106.611 372.193 107.17 372.648C107.728 373.098 108.183 373.649 108.533 374.303C108.888 374.956 109.116 375.704 109.215 376.547Z" fill="#D1DBFF"/>
<defs>
<linearGradient id="paint0_linear_6_12" x1="73.25" y1="0" x2="73.25" y2="313" gradientUnits="userSpaceOnUse">
<stop stop-color="#1974BB"/>
<stop offset="1" stop-color="#2C0287"/>
</linearGradient>
<linearGradient id="paint1_linear_6_12" x1="84.1892" y1="191" x2="84.1892" y2="323" gradientUnits="userSpaceOnUse">
<stop stop-color="#1974BB"/>
<stop offset="1" stop-color="#330185"/>
</linearGradient>
<linearGradient id="paint2_linear_6_12" x1="177.189" y1="15" x2="177.189" y2="191" gradientUnits="userSpaceOnUse">
<stop stop-color="#84A6FF"/>
<stop offset="1" stop-color="#FCFCFF"/>
</linearGradient>
<linearGradient id="paint3_linear_6_12" x1="50.5" y1="171.163" x2="50.5" y2="351.798" gradientUnits="userSpaceOnUse">
<stop stop-color="#84A6FF"/>
<stop offset="1" stop-color="white"/>
</linearGradient>
</defs>
</svg>
