<svg width="255" height="344" viewBox="0 0 255 344" fill="none" xmlns="http://www.w3.org/2000/svg">
<path d="M90.1 152V73.85H110.65V80.3C116.55 75 123.85 72.35 132.55 72.35C138.65 72.35 144 73.7 148.6 76.4C153.3 79 156.95 82.65 159.55 87.35C162.15 91.95 163.45 97.35 163.45 103.55V152H142.9V106.55C142.9 101.45 141.45 97.45 138.55 94.55C135.65 91.55 131.7 90.05 126.7 90.05C123.2 90.05 120.1 90.75 117.4 92.15C114.7 93.45 112.45 95.35 110.65 97.85V152H90.1Z" fill="url(#paint0_linear_1_54)"/>
<path d="M16.4 247V107H64C73.3333 107 81.4667 108.8 88.4 112.4C95.4667 115.867 100.933 120.8 104.8 127.2C108.8 133.467 110.8 140.8 110.8 149.2C110.8 158.4 108.4 166.333 103.6 173C98.8 179.667 92.2667 184.533 84 187.6L114.6 247H88.8L61 191H40.4V247H16.4ZM40.4 171.8H62C69.4667 171.8 75.4 169.8 79.8 165.8C84.3333 161.667 86.6 156.267 86.6 149.6C86.6 142.8 84.3333 137.4 79.8 133.4C75.4 129.267 69.4667 127.2 62 127.2H40.4V171.8Z" fill="url(#paint1_linear_1_54)"/>
<path d="M154.44 298.8C145.08 298.8 136.32 297.18 128.16 293.94C120 290.58 112.86 285.96 106.74 280.08C100.74 274.2 96 267.36 92.52 259.56C89.16 251.64 87.48 243.12 87.48 234C87.48 224.76 89.16 216.24 92.52 208.44C96 200.52 100.8 193.62 106.92 187.74C113.04 181.86 120.12 177.3 128.16 174.06C136.32 170.7 145.08 169.02 154.44 169.02C161.4 169.02 168.12 169.98 174.6 171.9C181.08 173.82 187.08 176.52 192.6 180C198.24 183.48 203.04 187.68 207 192.6L189.36 210.06C184.8 204.42 179.52 200.16 173.52 197.28C167.64 194.4 161.28 192.96 154.44 192.96C148.8 192.96 143.52 194.04 138.6 196.2C133.68 198.24 129.42 201.12 125.82 204.84C122.22 208.44 119.4 212.76 117.36 217.8C115.32 222.72 114.3 228.12 114.3 234C114.3 239.76 115.32 245.16 117.36 250.2C119.4 255.12 122.28 259.44 126 263.16C129.72 266.76 134.04 269.58 138.96 271.62C144 273.66 149.46 274.68 155.34 274.68C161.94 274.68 168.12 273.3 173.88 270.54C179.64 267.78 184.74 263.82 189.18 258.66L206.28 275.58C202.32 280.38 197.58 284.52 192.06 288C186.54 291.48 180.54 294.18 174.06 296.1C167.7 297.9 161.16 298.8 154.44 298.8Z" fill="url(#paint2_linear_1_54)"/>
<defs>
<linearGradient id="paint0_linear_1_54" x1="38" y1="99.5" x2="185.813" y2="74.8932" gradientUnits="userSpaceOnUse">
<stop stop-color="#1D4468"/>
<stop offset="0.9999" stop-color="#FF8B37"/>
<stop offset="1" stop-color="#FF8126"/>
</linearGradient>
<linearGradient id="paint1_linear_1_54" x1="-7.47059" y1="144.5" x2="133.715" y2="110.232" gradientUnits="userSpaceOnUse">
<stop stop-color="#1D4468"/>
<stop offset="0.9999" stop-color="#FF8B37"/>
<stop offset="1" stop-color="#FF8126"/>
</linearGradient>
<linearGradient id="paint2_linear_1_54" x1="81" y1="135.056" x2="204.687" y2="378.014" gradientUnits="userSpaceOnUse">
<stop stop-color="#1D4468"/>
<stop offset="0.463726" stop-color="#9A6B4D"/>
<stop offset="0.9999" stop-color="#FF8B37"/>
<stop offset="1" stop-color="#FF8126"/>
</linearGradient>
</defs>
</svg>
