<svg width="255" height="358" viewBox="0 0 255 358" fill="none" xmlns="http://www.w3.org/2000/svg">
<path d="M24.459 7.30078C26.5684 7.30078 28.3086 7.56445 29.6797 8.0918C31.0625 8.60742 32.0938 9.39844 32.7734 10.4648C33.4531 11.5313 33.793 12.8906 33.793 14.543C33.793 15.9023 33.5469 17.0391 33.0547 17.9531C32.5625 18.8555 31.918 19.5879 31.1211 20.1504C30.3242 20.7129 29.4746 21.1465 28.5723 21.4512L35.6211 33H32.1406L25.8477 22.2773H20.5039V33H17.5156V7.30078H24.459ZM24.2832 9.88477H20.5039V19.7461H24.582C26.6797 19.7461 28.2207 19.3184 29.2051 18.4629C30.2012 17.6074 30.6992 16.3477 30.6992 14.6836C30.6992 12.9375 30.1719 11.7012 29.1172 10.9746C28.0742 10.248 26.4629 9.88477 24.2832 9.88477ZM46.7129 13.3828C48.3535 13.3828 49.7598 13.7461 50.9316 14.4727C52.1035 15.1992 53 16.2188 53.6211 17.5312C54.2422 18.832 54.5527 20.3555 54.5527 22.1016V23.9121H41.2461C41.2812 26.1738 41.8438 27.8965 42.9336 29.0801C44.0234 30.2637 45.5586 30.8555 47.5391 30.8555C48.7578 30.8555 49.8359 30.7441 50.7734 30.5215C51.7109 30.2988 52.6836 29.9707 53.6914 29.5371V32.1035C52.7188 32.5371 51.752 32.8535 50.791 33.0527C49.8418 33.252 48.7168 33.3516 47.416 33.3516C45.5645 33.3516 43.9473 32.9766 42.5645 32.2266C41.1934 31.4648 40.127 30.3516 39.3652 28.8867C38.6035 27.4219 38.2227 25.6289 38.2227 23.5078C38.2227 21.4336 38.5684 19.6406 39.2598 18.1289C39.9629 16.6055 40.9473 15.4336 42.2129 14.6133C43.4902 13.793 44.9902 13.3828 46.7129 13.3828ZM46.6777 15.7734C45.1191 15.7734 43.877 16.2832 42.9512 17.3027C42.0254 18.3223 41.4746 19.7461 41.2988 21.5742H51.4941C51.4824 20.4258 51.3008 19.418 50.9492 18.5508C50.6094 17.6719 50.0879 16.9922 49.3848 16.5117C48.6816 16.0195 47.7793 15.7734 46.6777 15.7734ZM71.9727 27.7266C71.9727 28.957 71.6621 29.9941 71.041 30.8379C70.4316 31.6699 69.5527 32.2969 68.4043 32.7188C67.2676 33.1406 65.9082 33.3516 64.3262 33.3516C62.9785 33.3516 61.8125 33.2461 60.8281 33.0352C59.8438 32.8242 58.9824 32.5254 58.2441 32.1387V29.4492C59.0293 29.8359 59.9668 30.1875 61.0566 30.5039C62.1465 30.8203 63.2598 30.9785 64.3965 30.9785C66.0605 30.9785 67.2676 30.709 68.0176 30.1699C68.7676 29.6309 69.1426 28.8984 69.1426 27.9727C69.1426 27.4453 68.9902 26.9824 68.6855 26.584C68.3926 26.1738 67.8945 25.7812 67.1914 25.4062C66.4883 25.0195 65.5156 24.5977 64.2734 24.1406C63.043 23.6719 61.9766 23.209 61.0742 22.752C60.1836 22.2832 59.4922 21.7148 59 21.0469C58.5195 20.3789 58.2793 19.5117 58.2793 18.4453C58.2793 16.8164 58.9355 15.5684 60.248 14.7012C61.5723 13.8223 63.3066 13.3828 65.4512 13.3828C66.6113 13.3828 67.6953 13.5 68.7031 13.7344C69.7227 13.957 70.6719 14.2617 71.5508 14.6484L70.5664 16.9863C69.7695 16.6465 68.9199 16.3594 68.0176 16.125C67.1152 15.8906 66.1953 15.7734 65.2578 15.7734C63.9102 15.7734 62.873 15.9961 62.1465 16.4414C61.4316 16.8867 61.0742 17.4961 61.0742 18.2695C61.0742 18.8672 61.2383 19.3594 61.5664 19.7461C61.9062 20.1328 62.4453 20.4961 63.1836 20.8359C63.9219 21.1758 64.8945 21.5742 66.1016 22.0312C67.3086 22.4766 68.3516 22.9395 69.2305 23.4199C70.1094 23.8887 70.7832 24.4629 71.252 25.1426C71.7324 25.8105 71.9727 26.6719 71.9727 27.7266ZM84.084 13.3828C85.7246 13.3828 87.1309 13.7461 88.3027 14.4727C89.4746 15.1992 90.3711 16.2188 90.9922 17.5312C91.6133 18.832 91.9238 20.3555 91.9238 22.1016V23.9121H78.6172C78.6523 26.1738 79.2148 27.8965 80.3047 29.0801C81.3945 30.2637 82.9297 30.8555 84.9102 30.8555C86.1289 30.8555 87.207 30.7441 88.1445 30.5215C89.082 30.2988 90.0547 29.9707 91.0625 29.5371V32.1035C90.0898 32.5371 89.123 32.8535 88.1621 33.0527C87.2129 33.252 86.0879 33.3516 84.7871 33.3516C82.9355 33.3516 81.3184 32.9766 79.9355 32.2266C78.5645 31.4648 77.498 30.3516 76.7363 28.8867C75.9746 27.4219 75.5938 25.6289 75.5938 23.5078C75.5938 21.4336 75.9395 19.6406 76.6309 18.1289C77.334 16.6055 78.3184 15.4336 79.584 14.6133C80.8613 13.793 82.3613 13.3828 84.084 13.3828ZM84.0488 15.7734C82.4902 15.7734 81.248 16.2832 80.3223 17.3027C79.3965 18.3223 78.8457 19.7461 78.6699 21.5742H88.8652C88.8535 20.4258 88.6719 19.418 88.3203 18.5508C87.9805 17.6719 87.459 16.9922 86.7559 16.5117C86.0527 16.0195 85.1504 15.7734 84.0488 15.7734ZM104.088 13.418C106.385 13.418 108.09 13.9336 109.203 14.9648C110.316 15.9961 110.873 17.6426 110.873 19.9043V33H108.746L108.184 30.1523H108.043C107.504 30.8555 106.941 31.4473 106.355 31.9277C105.77 32.3965 105.09 32.7539 104.316 33C103.555 33.2344 102.617 33.3516 101.504 33.3516C100.332 33.3516 99.2891 33.1465 98.375 32.7363C97.4727 32.3262 96.7578 31.7051 96.2305 30.873C95.7148 30.041 95.457 28.9863 95.457 27.709C95.457 25.7871 96.2188 24.3105 97.7422 23.2793C99.2656 22.248 101.586 21.6855 104.703 21.5918L108.025 21.4512V20.2734C108.025 18.6094 107.668 17.4434 106.953 16.7754C106.238 16.1074 105.23 15.7734 103.93 15.7734C102.922 15.7734 101.961 15.9199 101.047 16.2129C100.133 16.5059 99.2656 16.8516 98.4453 17.25L97.5488 15.0352C98.416 14.5898 99.4121 14.209 100.537 13.8926C101.662 13.5762 102.846 13.418 104.088 13.418ZM107.99 23.5078L105.055 23.6309C102.652 23.7246 100.959 24.1172 99.9746 24.8086C98.9902 25.5 98.498 26.4785 98.498 27.7441C98.498 28.8457 98.832 29.6602 99.5 30.1875C100.168 30.7148 101.053 30.9785 102.154 30.9785C103.865 30.9785 105.266 30.5039 106.355 29.5547C107.445 28.6055 107.99 27.1816 107.99 25.2832V23.5078ZM125.639 13.3828C126.025 13.3828 126.43 13.4062 126.852 13.4531C127.273 13.4883 127.648 13.541 127.977 13.6113L127.607 16.3184C127.291 16.2363 126.939 16.1719 126.553 16.125C126.166 16.0781 125.803 16.0547 125.463 16.0547C124.689 16.0547 123.957 16.2129 123.266 16.5293C122.586 16.834 121.988 17.2793 121.473 17.8652C120.957 18.4395 120.553 19.1367 120.26 19.957C119.967 20.7656 119.82 21.668 119.82 22.6641V33H116.885V13.7344H119.311L119.627 17.2852H119.75C120.148 16.5703 120.629 15.9199 121.191 15.334C121.754 14.7363 122.404 14.2617 123.143 13.9102C123.893 13.5586 124.725 13.3828 125.639 13.3828ZM139.332 33.3516C137.598 33.3516 136.068 32.9941 134.744 32.2793C133.42 31.5645 132.389 30.4746 131.65 29.0098C130.912 27.5449 130.543 25.6992 130.543 23.4727C130.543 21.1406 130.93 19.2363 131.703 17.7598C132.488 16.2715 133.566 15.1699 134.938 14.4551C136.309 13.7402 137.867 13.3828 139.613 13.3828C140.574 13.3828 141.5 13.4824 142.391 13.6816C143.293 13.8691 144.031 14.1094 144.605 14.4023L143.727 16.8457C143.141 16.6113 142.461 16.4004 141.688 16.2129C140.926 16.0254 140.211 15.9316 139.543 15.9316C138.207 15.9316 137.094 16.2188 136.203 16.793C135.324 17.3672 134.662 18.2109 134.217 19.3242C133.783 20.4375 133.566 21.8086 133.566 23.4375C133.566 24.9961 133.777 26.3262 134.199 27.4277C134.633 28.5293 135.271 29.373 136.115 29.959C136.971 30.5332 138.037 30.8203 139.314 30.8203C140.334 30.8203 141.254 30.7148 142.074 30.5039C142.895 30.2812 143.639 30.0234 144.307 29.7305V32.332C143.662 32.6602 142.941 32.9121 142.145 33.0879C141.359 33.2637 140.422 33.3516 139.332 33.3516ZM151.795 5.64844V13.8223C151.795 14.291 151.783 14.7656 151.76 15.2461C151.736 15.7148 151.695 16.1484 151.637 16.5469H151.83C152.229 15.8672 152.732 15.2988 153.342 14.8418C153.963 14.373 154.666 14.0215 155.451 13.7871C156.236 13.541 157.068 13.418 157.947 13.418C159.494 13.418 160.783 13.6641 161.814 14.1562C162.857 14.6484 163.637 15.4102 164.152 16.4414C164.68 17.4727 164.943 18.8086 164.943 20.4492V33H162.061V20.6426C162.061 19.0371 161.691 17.8359 160.953 17.0391C160.227 16.2422 159.107 15.8438 157.596 15.8438C156.166 15.8438 155.023 16.1191 154.168 16.6699C153.324 17.209 152.715 18.0059 152.34 19.0605C151.977 20.1152 151.795 21.4043 151.795 22.9277V33H148.877V5.64844H151.795Z" fill="#DDDDDD"/>
<path d="M32.0176 60.1621C32.0176 61.6855 31.6367 62.9863 30.875 64.0645C30.125 65.1309 29.0703 65.9453 27.7109 66.5078C26.3516 67.0703 24.752 67.3516 22.9121 67.3516C21.9395 67.3516 21.0195 67.3047 20.1523 67.2109C19.2852 67.1172 18.4883 66.9824 17.7617 66.8066C17.0352 66.6309 16.3965 66.4141 15.8457 66.1562V63.291C16.7246 63.6543 17.7969 63.9941 19.0625 64.3105C20.3281 64.6152 21.6523 64.7676 23.0352 64.7676C24.3242 64.7676 25.4141 64.5977 26.3047 64.2578C27.1953 63.9062 27.8691 63.4082 28.3262 62.7637C28.7949 62.1074 29.0293 61.3223 29.0293 60.4082C29.0293 59.5293 28.8359 58.7969 28.4492 58.2109C28.0625 57.6133 27.418 57.0742 26.5156 56.5938C25.625 56.1016 24.4062 55.5801 22.8594 55.0293C21.7695 54.6426 20.8086 54.2207 19.9766 53.7637C19.1445 53.2949 18.4473 52.7676 17.8848 52.1816C17.3223 51.5957 16.8945 50.916 16.6016 50.1426C16.3203 49.3691 16.1797 48.4844 16.1797 47.4883C16.1797 46.1172 16.5254 44.9453 17.2168 43.9727C17.9199 42.9883 18.8867 42.2383 20.1172 41.7227C21.3594 41.1953 22.7832 40.9316 24.3887 40.9316C25.7598 40.9316 27.0254 41.0605 28.1855 41.3184C29.3574 41.5762 30.4297 41.9219 31.4023 42.3555L30.4707 44.9219C29.5449 44.5352 28.5605 44.2129 27.5176 43.9551C26.4863 43.6973 25.4199 43.5684 24.3184 43.5684C23.2168 43.5684 22.2852 43.7324 21.5234 44.0605C20.7734 44.377 20.1992 44.8281 19.8008 45.4141C19.4023 46 19.2031 46.6973 19.2031 47.5059C19.2031 48.4082 19.3906 49.1582 19.7656 49.7559C20.1523 50.3535 20.7617 50.8867 21.5938 51.3555C22.4375 51.8125 23.5508 52.293 24.9336 52.7969C26.4453 53.3477 27.7285 53.9336 28.7832 54.5547C29.8379 55.1641 30.6406 55.9141 31.1914 56.8047C31.7422 57.6836 32.0176 58.8027 32.0176 60.1621ZM51.582 67H37.2734V41.3008H51.582V43.9375H40.2617V52.252H50.9316V54.8535H40.2617V64.3633H51.582V67ZM68.2637 53.5352H77.2461V65.998C75.8984 66.4551 74.5098 66.7949 73.0801 67.0176C71.6621 67.2402 70.0742 67.3516 68.3164 67.3516C65.6445 67.3516 63.3887 66.8184 61.5488 65.752C59.7207 64.6855 58.332 63.168 57.3828 61.1992C56.4336 59.2188 55.959 56.8691 55.959 54.1504C55.959 51.4902 56.4805 49.1699 57.5234 47.1895C58.5781 45.209 60.0957 43.6738 62.0762 42.584C64.0684 41.4824 66.459 40.9316 69.248 40.9316C70.6777 40.9316 72.0312 41.0664 73.3086 41.3359C74.5977 41.5938 75.793 41.9629 76.8945 42.4434L75.752 45.0449C74.8027 44.6348 73.7539 44.2832 72.6055 43.9902C71.4688 43.6973 70.291 43.5508 69.0723 43.5508C66.9746 43.5508 65.1758 43.9844 63.6758 44.8516C62.1875 45.7188 61.0449 46.9434 60.248 48.5254C59.4629 50.1074 59.0703 51.9824 59.0703 54.1504C59.0703 56.2949 59.416 58.1641 60.1074 59.7578C60.7988 61.3398 61.877 62.5703 63.3418 63.4492C64.8066 64.3281 66.6934 64.7676 69.002 64.7676C70.1621 64.7676 71.1582 64.7031 71.9902 64.5742C72.8223 64.4336 73.5781 64.2695 74.2578 64.082V56.207H68.2637V53.5352ZM92.8203 67V41.3008H95.8086V67H92.8203ZM110.768 67H107.762V43.9375H99.6758V41.3008H118.818V43.9375H110.768V67ZM122.703 41.3008H129.98C133.191 41.3008 135.605 41.7812 137.223 42.7422C138.84 43.7031 139.648 45.3379 139.648 47.6465C139.648 48.6426 139.455 49.5391 139.068 50.3359C138.693 51.1211 138.143 51.7715 137.416 52.2871C136.689 52.8027 135.793 53.1602 134.727 53.3594V53.5352C135.852 53.7109 136.848 54.0332 137.715 54.502C138.582 54.9707 139.262 55.627 139.754 56.4707C140.246 57.3145 140.492 58.3867 140.492 59.6875C140.492 61.2695 140.123 62.6055 139.385 63.6953C138.658 64.7852 137.627 65.6113 136.291 66.1738C134.955 66.7246 133.373 67 131.545 67H122.703V41.3008ZM125.691 52.3223H130.613C132.852 52.3223 134.398 51.9531 135.254 51.2148C136.121 50.4766 136.555 49.3984 136.555 47.9805C136.555 46.5156 136.039 45.4609 135.008 44.8164C133.988 44.1719 132.359 43.8496 130.121 43.8496H125.691V52.3223ZM125.691 54.8359V64.4512H131.035C133.32 64.4512 134.938 64.0059 135.887 63.1152C136.836 62.2129 137.311 61 137.311 59.4766C137.311 58.5039 137.094 57.6719 136.66 56.9805C136.238 56.2891 135.547 55.7617 134.586 55.3984C133.637 55.0234 132.365 54.8359 130.771 54.8359H125.691ZM169.83 60.1621C169.83 61.6855 169.449 62.9863 168.688 64.0645C167.938 65.1309 166.883 65.9453 165.523 66.5078C164.164 67.0703 162.564 67.3516 160.725 67.3516C159.752 67.3516 158.832 67.3047 157.965 67.2109C157.098 67.1172 156.301 66.9824 155.574 66.8066C154.848 66.6309 154.209 66.4141 153.658 66.1562V63.291C154.537 63.6543 155.609 63.9941 156.875 64.3105C158.141 64.6152 159.465 64.7676 160.848 64.7676C162.137 64.7676 163.227 64.5977 164.117 64.2578C165.008 63.9062 165.682 63.4082 166.139 62.7637C166.607 62.1074 166.842 61.3223 166.842 60.4082C166.842 59.5293 166.648 58.7969 166.262 58.2109C165.875 57.6133 165.23 57.0742 164.328 56.5938C163.438 56.1016 162.219 55.5801 160.672 55.0293C159.582 54.6426 158.621 54.2207 157.789 53.7637C156.957 53.2949 156.26 52.7676 155.697 52.1816C155.135 51.5957 154.707 50.916 154.414 50.1426C154.133 49.3691 153.992 48.4844 153.992 47.4883C153.992 46.1172 154.338 44.9453 155.029 43.9727C155.732 42.9883 156.699 42.2383 157.93 41.7227C159.172 41.1953 160.596 40.9316 162.201 40.9316C163.572 40.9316 164.838 41.0605 165.998 41.3184C167.17 41.5762 168.242 41.9219 169.215 42.3555L168.283 44.9219C167.357 44.5352 166.373 44.2129 165.33 43.9551C164.299 43.6973 163.232 43.5684 162.131 43.5684C161.029 43.5684 160.098 43.7324 159.336 44.0605C158.586 44.377 158.012 44.8281 157.613 45.4141C157.215 46 157.016 46.6973 157.016 47.5059C157.016 48.4082 157.203 49.1582 157.578 49.7559C157.965 50.3535 158.574 50.8867 159.406 51.3555C160.25 51.8125 161.363 52.293 162.746 52.7969C164.258 53.3477 165.541 53.9336 166.596 54.5547C167.65 55.1641 168.453 55.9141 169.004 56.8047C169.555 57.6836 169.83 58.8027 169.83 60.1621ZM186.072 43.5684C184.654 43.5684 183.377 43.8145 182.24 44.3066C181.115 44.7871 180.154 45.4902 179.357 46.416C178.572 47.3301 177.969 48.4375 177.547 49.7383C177.125 51.0391 176.914 52.5039 176.914 54.1328C176.914 56.2891 177.248 58.1641 177.916 59.7578C178.596 61.3398 179.604 62.5645 180.939 63.4316C182.287 64.2988 183.969 64.7324 185.984 64.7324C187.133 64.7324 188.211 64.6387 189.219 64.4512C190.238 64.252 191.229 64.0059 192.189 63.7129V66.3145C191.252 66.666 190.268 66.9238 189.236 67.0879C188.205 67.2637 186.98 67.3516 185.562 67.3516C182.949 67.3516 180.764 66.8125 179.006 65.7344C177.26 64.6445 175.947 63.1094 175.068 61.1289C174.201 59.1484 173.768 56.8105 173.768 54.1152C173.768 52.1699 174.037 50.3945 174.576 48.7891C175.127 47.1719 175.924 45.7773 176.967 44.6055C178.021 43.4336 179.311 42.5312 180.834 41.8984C182.369 41.2539 184.127 40.9316 186.107 40.9316C187.408 40.9316 188.662 41.0605 189.869 41.3184C191.076 41.5762 192.166 41.9453 193.139 42.4258L191.943 44.957C191.123 44.582 190.221 44.2598 189.236 43.9902C188.264 43.709 187.209 43.5684 186.072 43.5684Z" fill="white"/>
<path d="M90.1 166V87.85H110.65V94.3C116.55 89 123.85 86.35 132.55 86.35C138.65 86.35 144 87.7 148.6 90.4C153.3 93 156.95 96.65 159.55 101.35C162.15 105.95 163.45 111.35 163.45 117.55V166H142.9V120.55C142.9 115.45 141.45 111.45 138.55 108.55C135.65 105.55 131.7 104.05 126.7 104.05C123.2 104.05 120.1 104.75 117.4 106.15C114.7 107.45 112.45 109.35 110.65 111.85V166H90.1Z" fill="url(#paint0_linear_1_51)"/>
<path d="M16.4 261V121H64C73.3333 121 81.4667 122.8 88.4 126.4C95.4667 129.867 100.933 134.8 104.8 141.2C108.8 147.467 110.8 154.8 110.8 163.2C110.8 172.4 108.4 180.333 103.6 187C98.8 193.667 92.2667 198.533 84 201.6L114.6 261H88.8L61 205H40.4V261H16.4ZM40.4 185.8H62C69.4667 185.8 75.4 183.8 79.8 179.8C84.3333 175.667 86.6 170.267 86.6 163.6C86.6 156.8 84.3333 151.4 79.8 147.4C75.4 143.267 69.4667 141.2 62 141.2H40.4V185.8Z" fill="url(#paint1_linear_1_51)"/>
<path d="M154.44 312.8C145.08 312.8 136.32 311.18 128.16 307.94C120 304.58 112.86 299.96 106.74 294.08C100.74 288.2 96 281.36 92.52 273.56C89.16 265.64 87.48 257.12 87.48 248C87.48 238.76 89.16 230.24 92.52 222.44C96 214.52 100.8 207.62 106.92 201.74C113.04 195.86 120.12 191.3 128.16 188.06C136.32 184.7 145.08 183.02 154.44 183.02C161.4 183.02 168.12 183.98 174.6 185.9C181.08 187.82 187.08 190.52 192.6 194C198.24 197.48 203.04 201.68 207 206.6L189.36 224.06C184.8 218.42 179.52 214.16 173.52 211.28C167.64 208.4 161.28 206.96 154.44 206.96C148.8 206.96 143.52 208.04 138.6 210.2C133.68 212.24 129.42 215.12 125.82 218.84C122.22 222.44 119.4 226.76 117.36 231.8C115.32 236.72 114.3 242.12 114.3 248C114.3 253.76 115.32 259.16 117.36 264.2C119.4 269.12 122.28 273.44 126 277.16C129.72 280.76 134.04 283.58 138.96 285.62C144 287.66 149.46 288.68 155.34 288.68C161.94 288.68 168.12 287.3 173.88 284.54C179.64 281.78 184.74 277.82 189.18 272.66L206.28 289.58C202.32 294.38 197.58 298.52 192.06 302C186.54 305.48 180.54 308.18 174.06 310.1C167.7 311.9 161.16 312.8 154.44 312.8Z" fill="url(#paint2_linear_1_51)"/>
<defs>
<linearGradient id="paint0_linear_1_51" x1="38" y1="113.5" x2="185.813" y2="88.8932" gradientUnits="userSpaceOnUse">
<stop stop-color="#1D4468"/>
<stop offset="0.9999" stop-color="#FF8B37"/>
<stop offset="1" stop-color="#FF8126"/>
</linearGradient>
<linearGradient id="paint1_linear_1_51" x1="-7.47059" y1="158.5" x2="133.715" y2="124.232" gradientUnits="userSpaceOnUse">
<stop stop-color="#1D4468"/>
<stop offset="0.9999" stop-color="#FF8B37"/>
<stop offset="1" stop-color="#FF8126"/>
</linearGradient>
<linearGradient id="paint2_linear_1_51" x1="81" y1="149.056" x2="204.687" y2="392.014" gradientUnits="userSpaceOnUse">
<stop stop-color="#1D4468"/>
<stop offset="0.463726" stop-color="#9A6B4D"/>
<stop offset="0.9999" stop-color="#FF8B37"/>
<stop offset="1" stop-color="#FF8126"/>
</linearGradient>
</defs>
</svg>
